<mxfile host="65bd71144e">
    <diagram id="YoSR6fyOTfUL3SyawTTG" name="Page-1">
        <mxGraphModel dx="1431" dy="2207" grid="1" gridSize="10" guides="1" tooltips="1" connect="1" arrows="1" fold="1" page="1" pageScale="1" pageWidth="850" pageHeight="1100" math="0" shadow="0">
            <root>
                <mxCell id="0"/>
                <mxCell id="1" parent="0"/>
                <mxCell id="3" value="TOMMY" style="strokeWidth=2;html=1;shape=mxgraph.flowchart.start_1;whiteSpace=wrap;rotation=90;" vertex="1" parent="1">
                    <mxGeometry x="230" y="990" width="100" height="60" as="geometry"/>
                </mxCell>
                <mxCell id="8" value="" style="shape=singleArrow;whiteSpace=wrap;html=1;" vertex="1" parent="1">
                    <mxGeometry x="20" y="790" width="100" height="60" as="geometry"/>
                </mxCell>
                <mxCell id="9" value="" style="shape=singleArrow;whiteSpace=wrap;html=1;" vertex="1" parent="1">
                    <mxGeometry x="180" y="790" width="100" height="60" as="geometry"/>
                </mxCell>
                <mxCell id="10" value="" style="shape=singleArrow;whiteSpace=wrap;html=1;" vertex="1" parent="1">
                    <mxGeometry x="340" y="790" width="100" height="60" as="geometry"/>
                </mxCell>
                <mxCell id="11" value="" style="shape=singleArrow;direction=west;whiteSpace=wrap;html=1;" vertex="1" parent="1">
                    <mxGeometry x="390" y="560" width="100" height="60" as="geometry"/>
                </mxCell>
                <mxCell id="12" value="" style="shape=singleArrow;direction=west;whiteSpace=wrap;html=1;" vertex="1" parent="1">
                    <mxGeometry x="230" y="560" width="100" height="60" as="geometry"/>
                </mxCell>
                <mxCell id="13" value="" style="shape=singleArrow;direction=west;whiteSpace=wrap;html=1;" vertex="1" parent="1">
                    <mxGeometry x="50" y="560" width="100" height="60" as="geometry"/>
                </mxCell>
                <mxCell id="15" value="" style="shape=singleArrow;whiteSpace=wrap;html=1;" vertex="1" parent="1">
                    <mxGeometry x="20" y="350" width="100" height="60" as="geometry"/>
                </mxCell>
                <mxCell id="16" value="" style="shape=singleArrow;whiteSpace=wrap;html=1;" vertex="1" parent="1">
                    <mxGeometry x="180" y="350" width="100" height="60" as="geometry"/>
                </mxCell>
                <mxCell id="17" value="" style="shape=singleArrow;whiteSpace=wrap;html=1;" vertex="1" parent="1">
                    <mxGeometry x="370" y="350" width="100" height="60" as="geometry"/>
                </mxCell>
                <mxCell id="18" value="" style="shape=singleArrow;direction=west;whiteSpace=wrap;html=1;" vertex="1" parent="1">
                    <mxGeometry x="375" y="180" width="100" height="60" as="geometry"/>
                </mxCell>
                <mxCell id="19" value="" style="shape=singleArrow;direction=west;whiteSpace=wrap;html=1;" vertex="1" parent="1">
                    <mxGeometry x="230" y="180" width="100" height="60" as="geometry"/>
                </mxCell>
                <mxCell id="20" value="" style="shape=singleArrow;direction=west;whiteSpace=wrap;html=1;" vertex="1" parent="1">
                    <mxGeometry x="50" y="180" width="100" height="60" as="geometry"/>
                </mxCell>
                <mxCell id="27" style="edgeStyle=none;html=1;" edge="1" parent="1" source="22">
                    <mxGeometry relative="1" as="geometry">
                        <mxPoint y="30" as="targetPoint"/>
                    </mxGeometry>
                </mxCell>
                <mxCell id="28" style="edgeStyle=none;html=1;exitX=1;exitY=0.5;exitDx=0;exitDy=0;" edge="1" parent="1" source="22">
                    <mxGeometry relative="1" as="geometry">
                        <mxPoint x="530" y="30" as="targetPoint"/>
                    </mxGeometry>
                </mxCell>
                <mxCell id="22" value="" style="shape=process;whiteSpace=wrap;html=1;backgroundOutline=1;" vertex="1" parent="1">
                    <mxGeometry x="200" width="120" height="60" as="geometry"/>
                </mxCell>
                <mxCell id="29" value="END" style="text;strokeColor=none;align=center;fillColor=none;html=1;verticalAlign=middle;whiteSpace=wrap;rounded=0;" vertex="1" parent="1">
                    <mxGeometry x="230" width="60" height="60" as="geometry"/>
                </mxCell>
            </root>
        </mxGraphModel>
    </diagram>
</mxfile>